<svg width="0" height="0" class="hidden">
  <symbol xmlns="http://www.w3.org/2000/svg" fill="#757a79" viewBox="0 -960 960 960" id="icon-location">
    <path d="M440-42v-80q-125-14-214.5-103.5T122-440H42v-80h80q14-125 103.5-214.5T440-838v-80h80v80q125 14 214.5 103.5T838-520h80v80h-80q-14 125-103.5 214.5T520-122v80h-80Zm40-158q116 0 198-82t82-198q0-116-82-198t-198-82q-116 0-198 82t-82 198q0 116 82 198t198 82Zm0-120q-66 0-113-47t-47-113q0-66 47-113t113-47q66 0 113 47t47 113q0 66-47 113t-113 47Zm0-80q33 0 56.5-23.5T560-480q0-33-23.5-56.5T480-560q-33 0-56.5 23.5T400-480q0 33 23.5 56.5T480-400Zm0-80Z"></path>
  </symbol>
  <symbol xmlns="http://www.w3.org/2000/svg" fill="#757a79" viewBox="0 -960 960 960" id="icon-search">
    <path d="M784-120 532-372q-30 24-69 38t-83 14q-109 0-184.5-75.5T120-580q0-109 75.5-184.5T380-840q109 0 184.5 75.5T640-580q0 44-14 83t-38 69l252 252-56 56ZM380-400q75 0 127.5-52.5T560-580q0-75-52.5-127.5T380-760q-75 0-127.5 52.5T200-580q0 75 52.5 127.5T380-400Z"></path>
  </symbol>
  <symbol xmlns="http://www.w3.org/2000/svg" fill="#757a79" viewBox="0 -960 960 960" id="icon-close">
    <path d="m256-200-56-56 224-224-224-224 56-56 224 224 224-224 56 56-224 224 224 224-56 56-224-224-224 224Z"></path>
  </symbol>
</svg>